<svg id="Layer_1" data-name="Layer 1" xmlns="http://www.w3.org/2000/svg" xmlns:xlink="http://www.w3.org/1999/xlink" viewBox="0 0 640.9 224.13"><defs><style>.cls-1{fill:none;}.cls-2{clip-path:url(#clip-path);}.cls-3{fill:#F01F4B;}</style><clipPath id="clip-path"><path class="cls-1" d="M-934.93-594.87h350a50.5,50.5,0,0,1,50.5,50.48v0h0a50.5,50.5,0,0,1-50.48,50.5h-350a50.5,50.5,0,0,1-50.5-50.48v0h0a50.5,50.5,0,0,1,50.48-50.5Z"/></clipPath></defs><title>Itineris_Button</title><g class="cls-2"><g id="Mask_Group_8" data-name="Mask Group 8"><path id="Path_945" data-name="Path 945" class="cls-3" d="M89.17,96.23c10.8-1.5,54.4-11.1,80.4-12,19.3-.7,56.8,18.6,95.1,20.1,25.5.9,36.5,18.2,75.8,14.2,34.1-3.5,94.5-14.3,146.1-14.2,23.7,0,52.7-21.7,82.7-23.4a71.6,71.6,0,1,1,.06,143.2H72.77a71.59,71.59,0,0,1-71.6-71.58v0h0c0-39.6,22.5-50.3,50.3-44.6S57.57,100.63,89.17,96.23Z"/></g></g><g id="Mask_Group_8-2" data-name="Mask Group 8-2"><path id="Path_945-2" data-name="Path 945-2" class="cls-3" d="M88,15.38c10.79-1.49,54.39-11.12,80.43-12,19.27-.68,56.78,18.63,95.13,20,25.52.94,36.46,18.2,75.77,14.22,34.11-3.47,94.47-14.27,146.06-14.21C509,23.39,538.07,1.68,568.09,0a71.63,71.63,0,0,1,0,143.26H71.63A71.63,71.63,0,0,1,0,71.63H0C0,32.07,22.5,21.29,50.34,27S56.37,19.75,88,15.38Z"/></g></svg>